<svg xmlns="http://www.w3.org/2000/svg" xmlns:xlink="http://www.w3.org/1999/xlink" version="1.1" x="0px" y="0px" viewBox="0 0 64 80" style="enable-background:new 0 0 64 64;" xml:space="preserve"><g><rect x="19" y="15" width="8" height="6"/><rect x="19" y="27" width="8" height="6"/><rect x="19" y="39" width="8" height="2"/><rect x="19" y="43" width="8" height="2"/><rect x="37" y="15" width="8" height="6"/><rect x="37" y="27" width="8" height="6"/><rect x="37" y="39" width="8" height="2"/><rect x="37" y="43" width="8" height="2"/><path d="M49,9V7H15v2H3v46h12v2h34v-2h12V9H49z M15,41H7v6h8v2H5V39h10V41z M15,29H7v6h8v2H5V27h10V29z M15,17H7v6h8v2H5V15h10V17z    M21,53h-2v-2h2V53z M25,53h-2v-2h2V53z M29,53h-2v-2h2V53z M29,47H17V37h12V47z M29,35H17V25h12V35z M29,23H17V13h12V23z M33,47   h-2V13h2V47z M47,47H35V37h12V47z M47,35H35V25h12V35z M47,23H35V13h12V23z M59,49H49v-2h8v-6h-8v-2h10V49z M59,37H49v-2h8v-6h-8   v-2h10V37z M59,25H49v-2h8v-6h-8v-2h10V25z"/></g><text x="0" y="79" fill="#000000" font-size="5px" font-weight="bold" font-family="'Helvetica Neue', Helvetica, Arial-Unicode, Arial, Sans-serif">Created by Eucalyp</text><text x="0" y="84" fill="#000000" font-size="5px" font-weight="bold" font-family="'Helvetica Neue', Helvetica, Arial-Unicode, Arial, Sans-serif">from the Noun Project</text></svg>